<svg width="1706" height="251" viewBox="0 0 1706 251" fill="none" xmlns="http://www.w3.org/2000/svg">
<g filter="url(#filter0_d_5_3)">
<path d="M76 82.9753H111C113 82.9753 114 82 114 80V31C114 3.00003 112 1.00006 84 1.00006H60H34C7 1.00006 5 3.00003 5 31V206.51C5 237.93 8.00665 239.929 32 240L85.4779 237.43C108.972 234.93 113.907 229.489 114 202.9V106C114 104 113 103 111 102.969H62.9841C61 102.969 60 104 59.9849 106V135.031C59.9849 137 61 138.03 62.9841 138.03H70C71.9998 138.03 72.9812 139 72.9814 141.002C72.9814 141.002 72.9814 141.002 72.9814 141.002C72.9814 141.014 73 195 73 197C73 199 72 200 70 200C68 200 51 199.96 49 200C47 200.04 46 199 46 197C46 195 46 37 46 37C46 37 46 37 46 37C46 35 47 33.9897 49 33.9897H60H70C72 33.9897 73 35 73 37L72.9814 80C72.9814 82 74 82.9753 76 82.9753Z" fill="#DB202C"/>
<path d="M127 1.00006H162.092C164 1.00006 165 2.00006 165 4.00006V87C165 89 166 89.5447 168 89.5447H197C199 89.5447 200 89 200 87V3.49875C200 1.84239 201.025 1.00006 202.681 1.00006H237.672C239.328 1.00006 241 1.84236 241 3.49872V223.5C241 225.5 240 226.781 238 226.781L203 228.781C201 228.781 200 227.5 200 225.5V134C200 132 199 131 197 131H168C166 131 165 132 165 134.029V228.5C165 230.5 164 231.5 162 231.5L127 233.5C125 233.5 124 232.5 124 230.5V4.18885C124 2.18885 125 1.00006 127 1.00006Z" fill="#DB202C"/>
<path d="M351.501 1.00031H256.094C254.094 1.00031 253.094 2.00028 253.094 4.00028L253 222.5C253 224.5 254 225.682 256 225.682L352 220C354 220 355 219 355 217V175.5C355 173.5 354 172.5 352 172.5H296C293.987 172.5 292.983 171.5 293 169.5V132.5C292.983 130.5 293.984 129.5 296 129.5H337C339 129.5 340 128.5 340 126.375V86.5003C340 84.5003 339 83.5003 337 83.5003H296C293.984 83.5003 293 82.5003 293 80.5003V44.5003C293 42.5003 293.984 41.5003 296 41.5003H352C353.999 41.5003 355 40.428 355 38.5003V4.00028C355 2.00028 353.5 1.00031 351.501 1.00031Z" fill="#DB202C"/>
<path d="M612 1.08347H647C649 1.08347 650 2.07984 650 4.07984V162.08C650 164.08 651 165.08 653 165.08H703C705 165.08 706 166.08 706 167.961V201.083C706 203.083 705 204.083 703 204.083L612 207.083C610 207.083 609 207.083 609 205.083V4.07984C609 2.07984 610 1.08347 612 1.08347Z" fill="#DB202C"/>
<path d="M753.999 1.07984L718.957 1.09723C717.317 1.12037 716 2.45621 716 4.09607V201.58C716 203.579 717.001 204.08 719 204.08L754 203.08C756 203.08 757 202.079 757 200.08V4.07984C756.999 2.07984 755.999 1.07984 753.999 1.07984Z" fill="#DB202C"/>
<path d="M909.97 1.00003H956.258C974.889 1.08703 988.153 1.18537 988.75 19.5265V55.4998V70.4998C988.75 72.4998 987.75 73.4998 985.75 73.4998H950.75C948.75 73.4998 947.75 72.4998 947.75 70.4998V55.4998V34.4998C947.75 32.4998 946.738 31.4998 944.75 31.4998H923.75C921.735 31.4998 920.768 32.4998 920.768 34.4998V37.0214V165C920.768 167.014 921.75 168 923.75 168H944.75C946.738 168 947.75 167 947.75 165V125.5C947.75 123.5 948.75 122.543 950.75 122.543H985.75C987.749 122.543 988.75 123.5 988.75 125.5V173.5C988.75 200.612 986.75 203.5 957.75 203.5L911 202C882 201 879.75 200.5 879.75 173.5V30.9998C879.75 2.99979 881.75 0.999789 909.97 1.00003Z" fill="#DB202C"/>
<path d="M1132.94 1.00003H1186.96C1188.41 1.00003 1189.75 1.56613 1190 3.00003L1208.38 106.442C1208.97 109.773 1213.76 109.737 1214.29 106.398L1231.05 2.07886C1231.29 0.61492 1232.52 0.987027 1234 1.00003H1285C1287 1.00003 1288 2.00003 1288 4.00003V214.292C1288 216.009 1287.51 216.084 1285.79 216L1250.79 214.292C1249.2 214.215 1248.01 213.59 1248 212L1247.32 127.805C1247.28 124.083 1241.84 123.74 1241.34 127.429L1230.5 211C1230.3 212.501 1229.5 213 1227.5 213L1193.23 211.51C1193.08 211.503 1192.92 211.486 1192.77 211.452C1190.48 210.935 1190.21 209.913 1190 208.5L1177.44 118.399C1176.9 114.723 1171.23 115.12 1171.23 118.837L1170.99 209.5C1170.99 211.156 1169.39 210.5 1167.73 210.5L1135.25 209C1132.75 209 1130 208.5 1130 206.5V4.00003C1130 2.00003 1131 1.00004 1132.94 1.00003Z" fill="#DB202C"/>
<path fill-rule="evenodd" clip-rule="evenodd" d="M562.676 1.08347H534.676H507.726C506.243 1.08347 504.897 2.6132 504.676 4.07984L489.926 102.871L474.5 209.583C474.226 211.398 475.165 212.583 477 212.583L512 210.583C513.85 210.583 513.989 210.156 514.395 208.904C514.464 208.691 514.511 208.471 514.533 208.248L518 173.08C518 171.08 519 170.033 521 170.033H553C554.426 170.033 555.337 171.038 555.621 172.435L559.5 206.083C559.784 207.481 560.5 207.583 563 207.583L596 206.583C597.865 206.583 599.324 205.92 599 204.083L565.676 4.07984C565.423 2.64649 564.238 1.08347 562.676 1.08347ZM539.36 71.456C538.819 68.0146 533.833 68.105 533.418 71.5638L526.079 132.614C525.865 134.4 527.259 135.972 529.058 135.972H545.992C547.834 135.972 549.241 134.327 548.955 132.506L539.36 71.456Z" fill="#DB202C"/>
<path fill-rule="evenodd" clip-rule="evenodd" d="M1083 0.996401H1054.5H1027.5C1026.02 0.996401 1024.81 1.02977 1024.59 2.4964L1009.84 101.288L995 201.258C994.726 203.072 995.665 204.467 997.5 204.467L1031 205.52C1033 205.52 1034 205.02 1034.5 203.02L1037.91 171.496C1037.91 169.496 1038.91 168.45 1040.91 168.45H1072.91C1074.34 168.45 1075.25 169.454 1075.53 170.851L1080.5 204.5C1080.78 205.897 1081.57 206.5 1083 206.5L1116 207.5C1118 207.5 1119 207 1118.5 205L1085.59 2.4964C1085.33 1.06306 1084.56 0.996401 1083 0.996401ZM1059.27 69.8726C1058.73 66.4312 1053.74 66.5216 1053.33 69.9804L1045.99 131.031C1045.78 132.817 1047.17 134.389 1048.97 134.389H1065.9C1067.75 134.389 1069.15 132.743 1068.87 130.923L1059.27 69.8726Z" fill="#DB202C"/>
<path d="M1396.5 1.00003H1301.09C1299.09 1.00003 1298.09 2.00003 1298.09 4.00003L1298 214C1298 216 1298 217 1300 217L1397 222C1399 222 1400 221 1400 219V175.5C1400 173.5 1399 172.5 1397 172.5H1341C1338.99 172.5 1337.98 171.5 1338 169.5V132.5C1337.98 130.5 1338.98 129.5 1341 129.5H1382C1384 129.5 1385 128.5 1385 126.375V86.5C1385 84.5 1384 83.5 1382 83.5H1341C1338.98 83.5 1338 82.5 1338 80.5V44.5C1338 42.5 1338.98 41.5 1341 41.5H1397C1399 41.5 1400 40.4278 1400 38.5V4.00003C1400 2.00003 1398.5 1.00003 1396.5 1.00003Z" fill="#DB202C"/>
<path d="M1413 1.00366H1448C1450 1.00366 1451 2.00003 1451 4.00003V184C1451 186 1452 187 1454 187H1504C1506 187 1507 188.119 1507 190V225C1507 227 1506 228 1504 228L1413 223C1411 223 1409.5 222 1409.5 220L1410 4.00003C1410 2.00003 1411 1.00366 1413 1.00366Z" fill="#DB202C"/>
<path d="M1555 1.00003L1519.96 1.01743C1518.32 1.04056 1517 2.3764 1517 4.01627L1518 226C1518 227.999 1518 229 1520 229L1555 231C1557 231 1558 230.999 1558 229V4.00003C1558 2.00003 1557 1.00003 1555 1.00003Z" fill="#DB202C"/>
<path fill-rule="evenodd" clip-rule="evenodd" d="M1659.5 0.996399H1631H1604C1602.52 0.996399 1601.31 1.02976 1601.09 2.4964L1586.34 101.288L1568 229C1567.73 230.814 1568.67 232.448 1570.5 232.448L1604 234C1606 234 1606 233 1606.5 231L1613.94 193.288C1613.98 193.096 1614 192.901 1614.01 192.706C1614.14 190.902 1615.51 190 1617.41 190H1649.41C1650.84 190 1651.72 190.603 1652 192L1660 234C1660.5 236 1662.07 237 1663.5 237L1698 239.5C1700 239.5 1701.5 239 1701 237L1662.09 2.4964C1661.83 1.06305 1661.06 0.996399 1659.5 0.996399ZM1635.77 69.8726C1635.23 66.4312 1630.24 66.5216 1629.83 69.9804L1622 155C1621.79 156.786 1623.2 157.5 1625 157.5H1643C1644.84 157.5 1645.79 156.82 1645.5 155L1635.77 69.8726Z" fill="#DB202C"/>
<path d="M423 45.0003C424 43.0003 424 40.9779 422 40.9779H396.029H368C366.343 40.9779 365 39.6347 365 37.9779V4.00191C365 2.34443 366.359 1.00103 368.017 1.00197C407.812 1.02457 422.236 1.05928 462.067 1.08185C463.678 1.08277 465 2.38913 465 4.00031V4.00031V40.3398C465 40.7749 464.905 41.2048 464.723 41.5997L406 168.5C405.113 170.39 403.579 172.709 405.679 173.412C405.887 173.482 406.111 173.5 406.331 173.5H462C464 173.5 465 173.928 465 175.928V210.5C465 212.5 464 214 462 214L368 219C366 219 365 218.21 365 216.5V175V172.5L394 108.75L423 45.0003Z" fill="#DB202C"/>
<path d="M365 172.5C365 173 365 174.574 365 175M365 172.5L394 108.75L423 45.0003C424 43.0003 424 40.9779 422 40.9779H396.029H368C366.343 40.9779 365 39.6347 365 37.9779V4.00191C365 2.34443 366.359 1.00103 368.017 1.00197C407.812 1.02457 422.236 1.05928 462.067 1.08185C463.678 1.08277 465 2.38913 465 4.00031V4.00031V40.3398C465 40.7749 464.905 41.2048 464.723 41.5997L406 168.5C405.113 170.39 403.579 172.709 405.679 173.412C405.887 173.482 406.111 173.5 406.331 173.5H462C464 173.5 465 173.928 465 175.928V210.5C465 212.5 464 214 462 214L368 219C366 219 365 218.21 365 216.5V175M365 172.5V175M111 82.9753H76C74 82.9753 72.9814 82 72.9814 80L73 37C73 35 72 33.9897 70 33.9897H60H49C47 33.9897 46 35 46 37C46 37 46 37 46 37C46 37 46 195 46 197C46 199 47 200.04 49 200C51 199.96 68 200 70 200C72 200 73 199 73 197C73 195 72.9814 141.014 72.9814 141.002C72.9814 141.002 72.9814 141.002 72.9814 141.002C72.9812 139 71.9998 138.03 70 138.03H62.9841C61 138.03 59.9849 137 59.9849 135.031V106C60 104 61 102.969 62.9841 102.969H111C113 103 114 104 114 106V202.9C113.907 229.489 108.972 234.93 85.4779 237.43L32 240C8.00665 239.929 5 237.93 5 206.51V31C5 3.00003 7 1.00006 34 1.00006H60H84C112 1.00006 114 3.00003 114 31V80C114 82 113 82.9753 111 82.9753ZM162.092 1.00006H127C125 1.00006 124 2.18885 124 4.18885V230.5C124 232.5 125 233.5 127 233.5L162 231.5C164 231.5 165 230.5 165 228.5V134.029C165 132 166 131 168 131H197C199 131 200 132 200 134V225.5C200 227.5 201 228.781 203 228.781L238 226.781C240 226.781 241 225.5 241 223.5V3.49872C241 1.84236 239.328 1.00006 237.672 1.00006H202.681C201.025 1.00006 200 1.84239 200 3.49875V87C200 89 199 89.5447 197 89.5447H168C166 89.5447 165 89 165 87V4.00006C165 2.00006 164 1.00006 162.092 1.00006ZM256.094 1.00031H351.501C353.5 1.00031 355 2.00028 355 4.00028V38.5003C355 40.428 353.999 41.5003 352 41.5003H296C293.984 41.5003 293 42.5003 293 44.5003V80.5003C293 82.5003 293.984 83.5003 296 83.5003H337C339 83.5003 340 84.5003 340 86.5003V126.375C340 128.5 339 129.5 337 129.5H296C293.984 129.5 292.983 130.5 293 132.5V169.5C292.983 171.5 293.987 172.5 296 172.5H352C354 172.5 355 173.5 355 175.5V217C355 219 354 220 352 220L256 225.682C254 225.682 253 224.5 253 222.5L253.094 4.00028C253.094 2.00028 254.094 1.00031 256.094 1.00031ZM647 1.08347H612C610 1.08347 609 2.07984 609 4.07984V205.083C609 207.083 610 207.083 612 207.083L703 204.083C705 204.083 706 203.083 706 201.083V167.961C706 166.08 705 165.08 703 165.08H653C651 165.08 650 164.08 650 162.08V4.07984C650 2.07984 649 1.08347 647 1.08347ZM718.957 1.09723L753.999 1.07984C755.999 1.07984 756.999 2.07984 757 4.07984V200.08C757 202.079 756 203.08 754 203.08L719 204.08C717.001 204.08 716 203.579 716 201.58V4.09607C716 2.45621 717.317 1.12037 718.957 1.09723ZM956.258 1.00003H909.97C881.75 0.999789 879.75 2.99979 879.75 30.9998V173.5C879.75 200.5 882 201 911 202L957.75 203.5C986.75 203.5 988.75 200.612 988.75 173.5V125.5C988.75 123.5 987.749 122.543 985.75 122.543H950.75C948.75 122.543 947.75 123.5 947.75 125.5V165C947.75 167 946.738 168 944.75 168H923.75C921.75 168 920.768 167.014 920.768 165V37.0214V34.4998C920.768 32.4998 921.735 31.4998 923.75 31.4998H944.75C946.738 31.4998 947.75 32.4998 947.75 34.4998V55.4998V70.4998C947.75 72.4998 948.75 73.4998 950.75 73.4998H985.75C987.75 73.4998 988.75 72.4998 988.75 70.4998V55.4998V19.5265C988.153 1.18537 974.889 1.08703 956.258 1.00003ZM1186.96 1.00003H1132.94C1131 1.00004 1130 2.00003 1130 4.00003V206.5C1130 208.5 1132.75 209 1135.25 209L1167.73 210.5C1169.39 210.5 1170.99 211.156 1170.99 209.5L1171.23 118.837C1171.23 115.12 1176.9 114.723 1177.44 118.399L1190 208.5C1190.21 209.913 1190.48 210.935 1192.77 211.452C1192.92 211.486 1193.08 211.503 1193.23 211.51L1227.5 213C1229.5 213 1230.3 212.501 1230.5 211L1241.34 127.429C1241.84 123.74 1247.28 124.083 1247.32 127.805L1248 212C1248.01 213.59 1249.2 214.215 1250.79 214.292L1285.79 216C1287.51 216.084 1288 216.009 1288 214.292V4.00003C1288 2.00003 1287 1.00003 1285 1.00003H1234C1232.52 0.987027 1231.29 0.61492 1231.05 2.07886L1214.29 106.398C1213.76 109.737 1208.97 109.773 1208.38 106.442L1190 3.00003C1189.75 1.56613 1188.41 1.00003 1186.96 1.00003ZM507.726 1.08347C506.243 1.08347 504.897 2.6132 504.676 4.07984L489.926 102.871L474.5 209.583C474.226 211.398 475.165 212.583 477 212.583L512 210.583C513.85 210.583 513.989 210.156 514.395 208.904C514.464 208.691 514.511 208.471 514.533 208.248L518 173.08C518 171.08 519 170.033 521 170.033H553C554.426 170.033 555.337 171.038 555.621 172.435L559.5 206.083C559.784 207.481 560.5 207.583 563 207.583L596 206.583C597.865 206.583 599.324 205.92 599 204.083L565.676 4.07984C565.423 2.64649 564.238 1.08347 562.676 1.08347H534.676H507.726ZM1027.5 0.996401C1026.02 0.996401 1024.81 1.02977 1024.59 2.4964L1009.84 101.288L995 201.258C994.726 203.072 995.665 204.467 997.5 204.467L1031 205.52C1033 205.52 1034 205.02 1034.5 203.02L1037.91 171.496C1037.91 169.496 1038.91 168.45 1040.91 168.45H1072.91C1074.34 168.45 1075.25 169.454 1075.53 170.851L1080.5 204.5C1080.78 205.897 1081.57 206.5 1083 206.5L1116 207.5C1118 207.5 1119 207 1118.5 205L1085.59 2.4964C1085.33 1.06306 1084.56 0.996401 1083 0.996401H1054.5H1027.5ZM1065.9 134.389H1048.97C1047.17 134.389 1045.78 132.817 1045.99 131.031L1053.33 69.9804C1053.74 66.5216 1058.73 66.4312 1059.27 69.8726L1068.87 130.923C1069.15 132.743 1067.75 134.389 1065.9 134.389ZM1301.09 1.00003H1396.5C1398.5 1.00003 1400 2.00003 1400 4.00003V38.5C1400 40.4278 1399 41.5 1397 41.5H1341C1338.98 41.5 1338 42.5 1338 44.5V80.5C1338 82.5 1338.98 83.5 1341 83.5H1382C1384 83.5 1385 84.5 1385 86.5V126.375C1385 128.5 1384 129.5 1382 129.5H1341C1338.98 129.5 1337.98 130.5 1338 132.5V169.5C1337.98 171.5 1338.99 172.5 1341 172.5H1397C1399 172.5 1400 173.5 1400 175.5V219C1400 221 1399 222 1397 222L1300 217C1298 217 1298 216 1298 214L1298.09 4.00003C1298.09 2.00003 1299.09 1.00003 1301.09 1.00003ZM1448 1.00366H1413C1411 1.00366 1410 2.00003 1410 4.00003L1409.5 220C1409.5 222 1411 223 1413 223L1504 228C1506 228 1507 227 1507 225V190C1507 188.119 1506 187 1504 187H1454C1452 187 1451 186 1451 184V4.00003C1451 2.00003 1450 1.00366 1448 1.00366ZM1519.96 1.01743L1555 1.00003C1557 1.00003 1558 2.00003 1558 4.00003V229C1558 230.999 1557 231 1555 231L1520 229C1518 229 1518 227.999 1518 226L1517 4.01627C1517 2.3764 1518.32 1.04056 1519.96 1.01743ZM1604 0.996399C1602.52 0.996399 1601.31 1.02976 1601.09 2.4964L1586.34 101.288L1568 229C1567.73 230.814 1568.67 232.448 1570.5 232.448L1604 234C1606 234 1606 233 1606.5 231L1613.94 193.288C1613.98 193.096 1614 192.901 1614.01 192.706C1614.14 190.902 1615.51 190 1617.41 190H1649.41C1650.84 190 1651.72 190.603 1652 192L1660 234C1660.5 236 1662.07 237 1663.5 237L1698 239.5C1700 239.5 1701.5 239 1701 237L1662.09 2.4964C1661.83 1.06305 1661.06 0.996399 1659.5 0.996399H1631H1604ZM1643 157.5H1625C1623.2 157.5 1621.79 156.786 1622 155L1629.83 69.9804C1630.24 66.5216 1635.23 66.4312 1635.77 69.8726L1645.5 155C1645.79 156.82 1644.84 157.5 1643 157.5ZM545.992 135.972H529.058C527.259 135.972 525.865 134.4 526.079 132.614L533.418 71.5638C533.833 68.105 538.819 68.0146 539.36 71.456L548.955 132.506C549.241 134.327 547.834 135.972 545.992 135.972Z" stroke="#DB202C"/>
</g>
<defs>
<filter id="filter0_d_5_3" x="0.5" y="0.448456" width="1705.1" height="250.052" filterUnits="userSpaceOnUse" color-interpolation-filters="sRGB">
<feFlood flood-opacity="0" result="BackgroundImageFix"/>
<feColorMatrix in="SourceAlpha" type="matrix" values="0 0 0 0 0 0 0 0 0 0 0 0 0 0 0 0 0 0 127 0" result="hardAlpha"/>
<feOffset dy="6"/>
<feGaussianBlur stdDeviation="2"/>
<feComposite in2="hardAlpha" operator="out"/>
<feColorMatrix type="matrix" values="0 0 0 0 0 0 0 0 0 0 0 0 0 0 0 0 0 0 0.5 0"/>
<feBlend mode="normal" in2="BackgroundImageFix" result="effect1_dropShadow_5_3"/>
<feBlend mode="normal" in="SourceGraphic" in2="effect1_dropShadow_5_3" result="shape"/>
</filter>
</defs>
</svg>
